<svg width="31" height="31" viewBox="0 0 31 31" fill="none" xmlns="http://www.w3.org/2000/svg">
<path d="M11.4775 15.5C11.4775 13.2034 13.2788 11.3412 15.5014 11.3412C17.724 11.3412 19.5263 13.2034 19.5263 15.5C19.5263 17.7966 17.724 19.6589 15.5014 19.6589C13.2788 19.6589 11.4775 17.7966 11.4775 15.5ZM9.3017 15.5C9.3017 19.0381 12.0773 21.9061 15.5014 21.9061C18.9255 21.9061 21.7011 19.0381 21.7011 15.5C21.7011 11.9619 18.9255 9.09393 15.5014 9.09393C12.0773 9.09393 9.3017 11.9619 9.3017 15.5ZM20.4976 8.83998C20.4976 9.66632 21.1462 10.3375 21.9469 10.3375C22.7466 10.3375 23.3961 9.66632 23.3961 8.83998C23.3961 8.01365 22.7475 7.34351 21.9469 7.34351C21.1462 7.34351 20.4976 8.01365 20.4976 8.83998ZM10.6232 25.6548C9.44603 25.5994 8.80627 25.3969 8.38105 25.2256C7.81736 24.9988 7.41555 24.7288 6.99229 24.2924C6.57001 23.8561 6.30766 23.4409 6.08921 22.8584C5.92341 22.419 5.72739 21.758 5.67375 20.5417C5.61523 19.2266 5.60353 18.8316 5.60353 15.5C5.60353 12.1685 5.61621 11.7745 5.67375 10.4584C5.72739 9.24206 5.92439 8.58201 6.08921 8.14163C6.30864 7.55917 6.57001 7.14399 6.99229 6.70663C7.41458 6.27029 7.81638 5.99921 8.38105 5.77348C8.80627 5.60217 9.44603 5.39962 10.6232 5.34419C11.8959 5.28373 12.2782 5.27164 15.5014 5.27164C18.7256 5.27164 19.1069 5.28474 20.3806 5.34419C21.5577 5.39962 22.1965 5.60318 22.6227 5.77348C23.1864 5.99921 23.5882 6.27029 24.0115 6.70663C24.4338 7.14298 24.6951 7.55917 24.9146 8.14163C25.0803 8.581 25.2764 9.24206 25.33 10.4584C25.3885 11.7745 25.4002 12.1685 25.4002 15.5C25.4002 18.8305 25.3885 19.2256 25.33 20.5417C25.2764 21.758 25.0794 22.419 24.9146 22.8584C24.6951 23.4409 24.4338 23.8561 24.0115 24.2924C23.5892 24.7288 23.1864 24.9988 22.6227 25.2256C22.1975 25.3969 21.5577 25.5994 20.3806 25.6548C19.1079 25.7153 18.7256 25.7274 15.5014 25.7274C12.2782 25.7274 11.8959 25.7153 10.6232 25.6548ZM10.5237 3.09999C9.2383 3.16046 8.36057 3.37107 7.59305 3.67943C6.79919 3.99787 6.12627 4.42515 5.45431 5.11846C4.78334 5.81178 4.36983 6.5071 4.06165 7.3284C3.76322 8.12148 3.55939 9.02843 3.50088 10.3566C3.44139 11.6868 3.42773 12.1121 3.42773 15.5C3.42773 18.888 3.44139 19.3132 3.50088 20.6434C3.55939 21.9716 3.76322 22.8786 4.06165 23.6716C4.36983 24.4919 4.78236 25.1883 5.45431 25.8816C6.12529 26.5749 6.79822 27.0012 7.59305 27.3206C8.36155 27.629 9.2383 27.8396 10.5237 27.9001C11.812 27.9605 12.2226 27.9756 15.5014 27.9756C18.7812 27.9756 19.1918 27.9615 20.4791 27.9001C21.7645 27.8396 22.6422 27.629 23.4097 27.3206C24.2036 27.0012 24.8765 26.5749 25.5485 25.8816C26.2194 25.1883 26.632 24.4919 26.9411 23.6716C27.2396 22.8786 27.4444 21.9716 27.5019 20.6434C27.5604 19.3122 27.5741 18.888 27.5741 15.5C27.5741 12.1121 27.5604 11.6868 27.5019 10.3566C27.4434 9.02843 27.2396 8.12148 26.9411 7.3284C26.632 6.50811 26.2194 5.81278 25.5485 5.11846C24.8775 4.42515 24.2036 3.99787 23.4107 3.67943C22.6422 3.37107 21.7645 3.15945 20.4801 3.09999C19.1927 3.03953 18.7812 3.02441 15.5024 3.02441C12.2226 3.02441 11.812 3.03852 10.5237 3.09999Z" fill="#D6A76F"/>
</svg>
