<svg width="32" height="31" viewBox="0 0 32 31" fill="none" xmlns="http://www.w3.org/2000/svg">
<path d="M2.97656 4.41009C2.97656 3.56997 3.26989 2.87688 3.85651 2.33082C4.44314 1.78475 5.20578 1.51172 6.14438 1.51172C7.06624 1.51172 7.81209 1.78054 8.38197 2.31822C8.96859 2.87269 9.26192 3.59517 9.26192 4.4857C9.26192 5.29221 8.97699 5.96428 8.40711 6.50196C7.82048 7.05643 7.04947 7.33367 6.0941 7.33367H6.06896C5.1471 7.33367 4.40125 7.05643 3.83137 6.50196C3.26149 5.94749 2.97656 5.25019 2.97656 4.41009ZM3.3034 26.4629V9.62717H8.8848V26.4629H3.3034ZM11.9772 26.4629H17.5586V17.0621C17.5586 16.474 17.6256 16.0204 17.7597 15.7011C17.9944 15.1299 18.3505 14.6468 18.8282 14.252C19.3059 13.8571 19.9051 13.6597 20.6258 13.6597C22.5031 13.6597 23.4417 14.9282 23.4417 17.4654V26.4629H29.0231V16.8101C29.0231 14.3234 28.4364 12.4373 27.2632 11.152C26.0899 9.8666 24.5395 9.22391 22.612 9.22391C20.4499 9.22391 18.7654 10.1564 17.5586 12.0215V12.0719H17.5334L17.5586 12.0215V9.62717H11.9772C12.0107 10.1648 12.0275 11.8366 12.0275 14.6426C12.0275 17.4486 12.0107 21.3887 11.9772 26.4629Z" fill="#D6A76F"/>
</svg>
