<svg width="31" height="31" viewBox="0 0 31 31" fill="none" xmlns="http://www.w3.org/2000/svg">
<path d="M28 8.48588C27.0596 8.90992 26.065 9.19174 25.0469 9.32265C26.1198 8.66459 26.922 7.62255 27.3016 6.39394C26.2969 7.00995 25.1977 7.44375 24.0516 7.67657C23.3488 6.90082 22.4367 6.3615 21.4336 6.12869C20.4305 5.89587 19.3829 5.98031 18.4268 6.37104C17.4708 6.76177 16.6505 7.44074 16.0725 8.31971C15.4946 9.19869 15.1857 10.2371 15.1859 11.2999C15.1859 11.7199 15.2203 12.1237 15.3047 12.5082C13.2658 12.4049 11.2709 11.8578 9.45047 10.9027C7.63007 9.94763 6.02515 8.60609 4.74062 6.96579C4.08253 8.13188 3.87908 9.51345 4.17169 10.8292C4.46431 12.1449 5.23099 13.2959 6.31562 14.0477C5.50431 14.0252 4.71012 13.8014 4 13.3951V13.4532C4.00136 14.6768 4.41041 15.8625 5.15831 16.8108C5.9062 17.759 6.94726 18.412 8.10625 18.6596C7.66779 18.7791 7.21592 18.8378 6.7625 18.8341C6.43686 18.8401 6.11154 18.8098 5.79219 18.7436C6.12335 19.7953 6.7617 20.715 7.61937 21.376C8.47703 22.0371 9.51182 22.407 10.5813 22.4348C8.76709 23.9017 6.52965 24.6974 4.22656 24.6948C3.80625 24.6948 3.40312 24.6754 3 24.6221C5.34357 26.1834 8.07449 27.0093 10.8625 26.9999C20.2937 26.9999 25.45 18.9229 25.45 11.9218C25.45 11.6876 25.4422 11.4614 25.4312 11.2369C26.4421 10.4889 27.3126 9.55669 28 8.48588Z" fill="#D6A76F"/>
</svg>
